Coordinates
version=1
nRows=27
nColumns=12
inDegrees=yes

Units are S.I. units (second, meters, Newtons, ...)
Angles are in degrees

endheader
time	SC_y	SC_z	SC_x	AC_y	AC_z	AC_x	GH_y	GH_z	GH_yy	EL_x	PS_y
       0.0              -33.41          5.241          9.756          56.24          6.019          -18.0          83.22          78.77         -96.86          99.86          90.55
   0.03849              -33.41          5.243           9.76          56.24          6.015          -18.0          83.22          78.77         -96.84          99.86          90.56
   0.07697              -33.41          5.246          9.763          56.24          6.011         -17.99          83.21          78.77         -96.82          99.86          90.56
    0.1155               -33.4          5.249          9.768          56.24          6.007         -17.99           83.2          78.77         -96.79          99.86          90.57
    0.1539               -33.4          5.252          9.772          56.23          6.003         -17.99           83.2          78.77         -96.77          99.87          90.57
    0.1924               -33.4          5.255          9.777          56.23          5.999         -17.99          83.19          78.77         -96.74          99.87          90.58
    0.2309              -33.39          5.259          9.782          56.23          5.994         -17.99          83.18          78.77         -96.71          99.87          90.58
    0.2694              -33.39          5.263          9.787          56.22          5.989         -17.99          83.17          78.77         -96.67          99.88          90.59
    0.3079              -33.38          5.267          9.793          56.22          5.983         -17.99          83.16          78.76         -96.64          99.88           90.6
    0.3464              -33.38          5.271          9.799          56.22          5.978         -17.99          83.15          78.76          -96.6          99.88           90.6
    0.3849              -33.37          5.276          9.806          56.21          5.971         -17.99          83.14          78.76         -96.56          99.89          90.61
    0.4234              -33.37          5.281          9.813          56.21          5.964         -17.99          83.13          78.76         -96.52          99.89          90.62
    0.4618              -33.36          5.286          9.821          56.21          5.957         -17.99          83.12          78.76         -96.47           99.9          90.63
    0.5003              -33.35          5.292          9.829           56.2          5.949         -17.98           83.1          78.76         -96.42           99.9          90.64
    0.5388              -33.35          5.298          9.838           56.2          5.941         -17.98          83.09          78.75         -96.37          99.91          90.65
    0.5773              -33.34          5.305          9.848          56.19          5.932         -17.98          83.07          78.75         -96.31          99.91          90.66
    0.6158              -33.33          5.313          9.858          56.19          5.921         -17.98          83.06          78.75         -96.25          99.92          90.67
    0.6543              -33.32          5.321           9.87          56.18           5.91         -17.98          83.04          78.75         -96.18          99.93          90.68
    0.6928              -33.31           5.33          9.882          56.17          5.899         -17.98          83.02          78.74          -96.1          99.94           90.7
    0.7313               -33.3           5.34          9.896          56.17          5.885         -17.97          82.99          78.74         -96.02          99.94          90.71
    0.7697              -33.29           5.35          9.911          56.16          5.871         -17.97          82.97          78.74         -95.93          99.95          90.73
    0.8082              -33.27          5.362          9.928          56.15          5.855         -17.97          82.94          78.74         -95.83          99.96          90.75
    0.8467              -33.26          5.375          9.946          56.14          5.838         -17.97          82.91          78.73         -95.72          99.98          90.77
    0.8852              -33.24          5.389          9.967          56.13          5.818         -17.96          82.88          78.73          -95.6          99.99          90.79
    0.9237              -33.22          5.405          9.989          56.11          5.797         -17.96          82.84          78.72         -95.46          100.0          90.82
    0.9622               -33.2          5.423          10.01           56.1          5.773         -17.96           82.8          78.72         -95.31          100.0          90.85
     1.001              -33.18          5.443          10.04          56.08          5.746         -17.95          82.75          78.71         -95.14          100.0          90.88
